<svg width="136" height="30" viewBox="0 0 136 30" fill="none" xmlns="http://www.w3.org/2000/svg">
<circle cx="81.5" cy="14.5" r="7.5" fill="#F5F8FC"/>
<circle cx="81.5" cy="14.5" r="3.5" fill="#398DFF"/>
<circle cx="105" cy="17.5" r="1.5" fill="#398DFF"/>
<path d="M96.6562 12.2734C96.7969 11.9453 97.0625 11.7188 97.4531 11.5938C97.8438 11.4688 98.25 11.4062 98.6719 11.4062C99.5781 11.4844 100.188 11.8047 100.5 12.3672C100.812 12.9297 100.969 13.7266 100.969 14.7578C100.969 15.3984 100.938 16 100.875 16.5625C100.812 17.1094 100.727 17.5859 100.617 17.9922C100.523 18.3984 100.398 18.7266 100.242 18.9766C100.102 19.2109 99.9453 19.3281 99.7734 19.3281C99.6328 19.3281 99.5078 19.2656 99.3984 19.1406C99.3047 19.0156 99.2578 18.8438 99.2578 18.625C99.2578 18.3438 99.2812 18.0391 99.3281 17.7109C99.375 17.3672 99.4297 17.0234 99.4922 16.6797C99.5547 16.3359 99.6094 15.9922 99.6562 15.6484C99.7031 15.3047 99.7266 14.9688 99.7266 14.6406C99.7266 13.9844 99.625 13.4844 99.4219 13.1406C99.2188 12.7812 98.8672 12.6016 98.3672 12.6016C98.0859 12.6328 97.8281 12.7344 97.5938 12.9062C97.3594 13.0625 97.2031 13.2891 97.125 13.5859C97.1406 13.7422 97.1484 13.9062 97.1484 14.0781C97.1641 14.25 97.1719 14.4297 97.1719 14.6172C97.1719 15.2578 97.1406 15.8672 97.0781 16.4453C97.0312 17.0234 96.9531 17.5312 96.8438 17.9688C96.7344 18.3906 96.6016 18.7344 96.4453 19C96.3047 19.25 96.1406 19.375 95.9531 19.375C95.7969 19.375 95.6641 19.3125 95.5547 19.1875C95.4609 19.0625 95.4141 18.8906 95.4141 18.6719C95.4141 18.3906 95.4375 18.0938 95.4844 17.7812C95.5469 17.4531 95.6016 17.125 95.6484 16.7969C95.7109 16.4531 95.7656 16.1172 95.8125 15.7891C95.875 15.4453 95.9062 15.1094 95.9062 14.7812C95.9062 14.1719 95.8359 13.6797 95.6953 13.3047C95.5703 12.9141 95.2656 12.7188 94.7812 12.7188C94.4688 12.7188 94.1797 12.7891 93.9141 12.9297C93.6484 13.0547 93.4609 13.1172 93.3516 13.1172C93.2266 13.1172 93.1172 13.0547 93.0234 12.9297C92.9453 12.8047 92.9062 12.6719 92.9062 12.5312C92.9062 12.3594 92.9688 12.2109 93.0938 12.0859C93.2344 11.9453 93.4062 11.8359 93.6094 11.7578C93.8125 11.6641 94.0391 11.5938 94.2891 11.5469C94.5391 11.5 94.7812 11.4766 95.0156 11.4766C95.3438 11.4766 95.6484 11.5469 95.9297 11.6875C96.2266 11.8125 96.4688 12.0078 96.6562 12.2734ZM92.2969 11.6641C92.2812 11.9453 92.2734 12.2344 92.2734 12.5312C92.2734 12.8125 92.2734 13.1016 92.2734 13.3984C92.2734 14.1953 92.2891 14.9844 92.3203 15.7656C92.3672 16.5312 92.4375 17.2266 92.5312 17.8516C92.5312 18.1172 92.4688 18.3125 92.3438 18.4375C92.2344 18.5469 92.0938 18.6016 91.9219 18.6016C91.7656 18.6016 91.625 18.5469 91.5 18.4375C91.375 18.3281 91.2969 18.1641 91.2656 17.9453C91.1719 17.2578 91.1016 16.5391 91.0547 15.7891C91.0078 15.0391 90.9844 14.2656 90.9844 13.4688C90.9844 13.2656 90.9766 13.0312 90.9609 12.7656C90.9453 12.5 90.9531 12.25 90.9844 12.0156C91.0156 11.7812 91.0781 11.5859 91.1719 11.4297C91.2812 11.2578 91.4531 11.1719 91.6875 11.1719C91.8438 11.1719 91.9844 11.2266 92.1094 11.3359C92.2344 11.4297 92.2969 11.5391 92.2969 11.6641ZM111.375 17.7578C111.547 17.8047 111.68 17.8984 111.773 18.0391C111.867 18.1641 111.914 18.3047 111.914 18.4609C111.914 18.6484 111.859 18.8203 111.75 18.9766C111.641 19.1172 111.484 19.1875 111.281 19.1875C111.172 19.1875 111.062 19.1641 110.953 19.1172C110.312 18.9609 109.836 18.7422 109.523 18.4609C109.211 18.1641 108.992 17.8125 108.867 17.4062C108.742 17 108.68 16.5312 108.68 16C108.68 15.4531 108.68 14.8359 108.68 14.1484C108.68 13.6016 108.688 13.0391 108.703 12.4609C108.719 11.8828 108.742 11.3125 108.773 10.75C108.805 10.1719 108.844 9.61719 108.891 9.08594C108.938 8.55469 108.984 8.07031 109.031 7.63281C109.047 7.39844 109.109 7.22656 109.219 7.11719C109.344 7.00781 109.484 6.95312 109.641 6.95312C109.812 6.95312 109.977 7.01562 110.133 7.14062C110.305 7.26562 110.391 7.46094 110.391 7.72656C110.344 8.17969 110.297 8.73438 110.25 9.39062C110.219 10.0312 110.188 10.7109 110.156 11.4297C110.141 12.1484 110.125 12.8672 110.109 13.5859C110.094 14.3047 110.086 14.9531 110.086 15.5312C110.086 15.8438 110.086 16.125 110.086 16.375C110.102 16.6094 110.148 16.8203 110.227 17.0078C110.32 17.1797 110.453 17.3281 110.625 17.4531C110.797 17.5781 111.047 17.6797 111.375 17.7578ZM115.406 12.3203C115.375 12.6797 115.344 13.0547 115.312 13.4453C115.297 13.8359 115.289 14.2344 115.289 14.6406C115.289 15.2188 115.312 15.7969 115.359 16.375C115.422 16.9531 115.453 17.5156 115.453 18.0625C115.453 18.375 115.375 18.6094 115.219 18.7656C115.078 18.9219 114.922 19 114.75 19C114.594 19 114.461 18.9453 114.352 18.8359C114.258 18.7109 114.203 18.5234 114.188 18.2734C114.141 17.5703 114.094 16.9297 114.047 16.3516C114.016 15.7578 114 15.1641 114 14.5703C114 14.3359 113.992 14.0391 113.977 13.6797C113.977 13.3047 113.992 12.9531 114.023 12.625C114.07 12.2812 114.148 11.9922 114.258 11.7578C114.383 11.5078 114.57 11.3828 114.82 11.3828C114.977 11.3828 115.109 11.4531 115.219 11.5938C115.344 11.7344 115.406 11.9219 115.406 12.1562V12.3203ZM114.281 6.97656C114.344 6.94531 114.398 6.92969 114.445 6.92969C114.508 6.92969 114.562 6.9375 114.609 6.95312C114.672 6.96875 114.719 6.97656 114.75 6.97656C114.828 6.96094 114.898 6.95312 114.961 6.95312C115.023 6.9375 115.094 6.92969 115.172 6.92969C115.688 6.92969 116.07 7.10156 116.32 7.44531C116.586 7.78906 116.719 8.15625 116.719 8.54688C116.719 8.73438 116.672 8.9375 116.578 9.15625C116.5 9.375 116.375 9.57812 116.203 9.76562C116.047 9.9375 115.844 10.0859 115.594 10.2109C115.344 10.3359 115.055 10.3984 114.727 10.3984C114.508 10.3984 114.305 10.3438 114.117 10.2344C113.93 10.125 113.766 9.99219 113.625 9.83594C113.484 9.66406 113.375 9.47656 113.297 9.27344C113.219 9.05469 113.18 8.84375 113.18 8.64062C113.18 8.32812 113.281 8 113.484 7.65625C113.703 7.3125 113.969 7.08594 114.281 6.97656ZM114.844 8.19531H114.656C114.578 8.22656 114.523 8.28125 114.492 8.35938C114.461 8.4375 114.445 8.51562 114.445 8.59375C114.445 8.73438 114.5 8.86719 114.609 8.99219C114.719 9.10156 114.82 9.15625 114.914 9.15625C115.148 9.15625 115.305 9.08594 115.383 8.94531C115.461 8.78906 115.5 8.64844 115.5 8.52344C115.422 8.27344 115.266 8.14844 115.031 8.14844C115 8.14844 114.938 8.16406 114.844 8.19531ZM124.688 11.9453C124.734 11.7578 124.812 11.625 124.922 11.5469C125.047 11.4531 125.18 11.4062 125.32 11.4062C125.492 11.4062 125.641 11.4688 125.766 11.5938C125.906 11.7188 125.977 11.8984 125.977 12.1328C125.977 12.2422 125.969 12.3203 125.953 12.3672C125.688 13.1953 125.406 14.0078 125.109 14.8047C124.828 15.5859 124.539 16.2812 124.242 16.8906C123.945 17.5 123.641 17.9922 123.328 18.3672C123.031 18.7422 122.742 18.9297 122.461 18.9297C122.148 18.9297 121.82 18.7422 121.477 18.3672C121.133 17.9766 120.789 17.4609 120.445 16.8203C120.102 16.1797 119.758 15.4453 119.414 14.6172C119.086 13.7734 118.781 12.8984 118.5 11.9922C118.469 11.8984 118.453 11.8281 118.453 11.7812C118.453 11.5938 118.531 11.4375 118.688 11.3125C118.859 11.1719 119.039 11.1016 119.227 11.1016C119.367 11.1016 119.5 11.1406 119.625 11.2188C119.75 11.2969 119.828 11.4453 119.859 11.6641C120 12.1641 120.188 12.7344 120.422 13.375C120.672 14 120.922 14.5938 121.172 15.1562C121.422 15.7031 121.656 16.1719 121.875 16.5625C122.109 16.9375 122.281 17.125 122.391 17.125C122.484 17.125 122.625 16.9531 122.812 16.6094C123.016 16.25 123.227 15.8125 123.445 15.2969C123.664 14.7812 123.883 14.2266 124.102 13.6328C124.32 13.0234 124.516 12.4609 124.688 11.9453ZM133.594 17.8516C133.859 17.8516 134.055 17.9141 134.18 18.0391C134.305 18.1484 134.367 18.2969 134.367 18.4844C134.367 18.6875 134.312 18.8438 134.203 18.9531C134.109 19.0469 133.984 19.1172 133.828 19.1641C133.688 19.2109 133.523 19.2344 133.336 19.2344C133.164 19.2344 133.008 19.2344 132.867 19.2344C132.211 19.2344 131.555 19.1562 130.898 19C130.258 18.8281 129.68 18.5781 129.164 18.25C128.648 17.9219 128.227 17.5156 127.898 17.0312C127.57 16.5469 127.406 15.9922 127.406 15.3672C127.406 14.6953 127.586 14.1172 127.945 13.6328C128.32 13.1328 128.781 12.7188 129.328 12.3906C129.875 12.0625 130.461 11.8203 131.086 11.6641C131.711 11.5078 132.289 11.4297 132.82 11.4297C133.086 11.4297 133.352 11.4609 133.617 11.5234C133.898 11.5859 134.148 11.6953 134.367 11.8516C134.586 12.0078 134.766 12.2188 134.906 12.4844C135.047 12.75 135.117 13.0859 135.117 13.4922C135.117 13.9766 134.961 14.3906 134.648 14.7344C134.336 15.0781 133.961 15.3672 133.523 15.6016C133.086 15.8359 132.625 16.0078 132.141 16.1172C131.656 16.2266 131.25 16.2891 130.922 16.3047C130.75 16.3047 130.617 16.2422 130.523 16.1172C130.445 15.9766 130.406 15.8203 130.406 15.6484C130.406 15.5078 130.445 15.3672 130.523 15.2266C130.602 15.0703 130.734 14.9922 130.922 14.9922C131.219 14.9922 131.531 14.9609 131.859 14.8984C132.203 14.8359 132.516 14.7422 132.797 14.6172C133.094 14.4766 133.336 14.3047 133.523 14.1016C133.711 13.8984 133.805 13.6562 133.805 13.375C133.805 12.9531 133.484 12.7422 132.844 12.7422C132.422 12.7422 131.977 12.8047 131.508 12.9297C131.039 13.0391 130.609 13.2109 130.219 13.4453C129.828 13.6797 129.5 13.9766 129.234 14.3359C128.984 14.6797 128.859 15.0859 128.859 15.5547C128.859 15.9141 128.969 16.2344 129.188 16.5156C129.422 16.7969 129.719 17.0469 130.078 17.2656C130.453 17.4688 130.875 17.625 131.344 17.7344C131.828 17.8438 132.328 17.8984 132.844 17.8984C132.969 17.8984 133.094 17.8984 133.219 17.8984C133.344 17.8828 133.469 17.8672 133.594 17.8516Z" fill="#398DFF"/>
<path d="M8.85938 18.0391C8.96875 18.1953 9.02344 18.3516 9.02344 18.5078C9.02344 18.7109 8.94531 18.8828 8.78906 19.0234C8.63281 19.1641 8.45312 19.2344 8.25 19.2344C8.03125 19.2344 7.75781 19.0234 7.42969 18.6016C7.10156 18.1797 6.75781 17.6641 6.39844 17.0547C6.03906 16.4453 5.69531 15.8125 5.36719 15.1562C5.03906 14.4844 4.78125 13.8984 4.59375 13.3984C4.5625 13.3359 4.52344 13.2578 4.47656 13.1641C4.44531 13.0547 4.42969 12.9375 4.42969 12.8125C4.42969 12.6562 4.47656 12.4609 4.57031 12.2266C4.67969 11.9922 4.92188 11.7891 5.29688 11.6172C5.78125 11.3828 6.17188 11.1719 6.46875 10.9844C6.78125 10.7969 7.01562 10.625 7.17188 10.4688C7.32812 10.2969 7.42969 10.1406 7.47656 10C7.53906 9.85938 7.57031 9.72656 7.57031 9.60156C7.57031 9.11719 7.3125 8.76562 6.79688 8.54688C6.29688 8.3125 5.66406 8.19531 4.89844 8.19531C4.58594 8.19531 4.25 8.21094 3.89062 8.24219C3.54688 8.27344 3.17188 8.32031 2.76562 8.38281C2.89062 8.89844 2.97656 9.50781 3.02344 10.2109C3.08594 10.9141 3.11719 11.6641 3.11719 12.4609C3.11719 13.0547 3.10156 13.6484 3.07031 14.2422C3.05469 14.8359 3.03125 15.3984 3 15.9297C2.96875 16.4609 2.92188 16.9453 2.85938 17.3828C2.8125 17.8203 2.76562 18.1797 2.71875 18.4609C2.6875 18.6797 2.59375 18.8438 2.4375 18.9531C2.29688 19.0625 2.14844 19.1172 1.99219 19.1172C1.82031 19.1172 1.65625 19.0625 1.5 18.9531C1.35938 18.8438 1.28906 18.6797 1.28906 18.4609C1.28906 18.3828 1.29688 18.3203 1.3125 18.2734C1.42188 17.5078 1.51562 16.6094 1.59375 15.5781C1.67188 14.5469 1.71094 13.5156 1.71094 12.4844C1.71094 11.625 1.67969 10.8281 1.61719 10.0938C1.55469 9.35938 1.45312 8.77344 1.3125 8.33594C1.23438 8.10156 1.19531 7.92188 1.19531 7.79688C1.19531 7.5625 1.25 7.38281 1.35938 7.25781C1.46875 7.11719 1.60938 7.04688 1.78125 7.04688C1.875 7.04688 1.96875 7.07031 2.0625 7.11719H2.10938C2.59375 7.07031 3.05469 7.03125 3.49219 7C3.94531 6.96875 4.375 6.95312 4.78125 6.95312C5.34375 6.95312 5.88281 6.99219 6.39844 7.07031C6.92969 7.14844 7.39062 7.28906 7.78125 7.49219C8.17188 7.69531 8.48438 7.96094 8.71875 8.28906C8.95312 8.61719 9.07031 9.02344 9.07031 9.50781C9.07031 10.0391 8.82812 10.5859 8.34375 11.1484C7.85938 11.6953 7.04688 12.2578 5.90625 12.8359C6.04688 13.1953 6.23438 13.625 6.46875 14.125C6.71875 14.625 6.98438 15.125 7.26562 15.625C7.5625 16.125 7.85156 16.5938 8.13281 17.0312C8.41406 17.4688 8.65625 17.8047 8.85938 18.0391ZM16.8281 17.8516C17.0938 17.8516 17.2891 17.9141 17.4141 18.0391C17.5391 18.1484 17.6016 18.2969 17.6016 18.4844C17.6016 18.6875 17.5469 18.8438 17.4375 18.9531C17.3438 19.0469 17.2188 19.1172 17.0625 19.1641C16.9219 19.2109 16.7578 19.2344 16.5703 19.2344C16.3984 19.2344 16.2422 19.2344 16.1016 19.2344C15.4453 19.2344 14.7891 19.1562 14.1328 19C13.4922 18.8281 12.9141 18.5781 12.3984 18.25C11.8828 17.9219 11.4609 17.5156 11.1328 17.0312C10.8047 16.5469 10.6406 15.9922 10.6406 15.3672C10.6406 14.6953 10.8203 14.1172 11.1797 13.6328C11.5547 13.1328 12.0156 12.7188 12.5625 12.3906C13.1094 12.0625 13.6953 11.8203 14.3203 11.6641C14.9453 11.5078 15.5234 11.4297 16.0547 11.4297C16.3203 11.4297 16.5859 11.4609 16.8516 11.5234C17.1328 11.5859 17.3828 11.6953 17.6016 11.8516C17.8203 12.0078 18 12.2188 18.1406 12.4844C18.2812 12.75 18.3516 13.0859 18.3516 13.4922C18.3516 13.9766 18.1953 14.3906 17.8828 14.7344C17.5703 15.0781 17.1953 15.3672 16.7578 15.6016C16.3203 15.8359 15.8594 16.0078 15.375 16.1172C14.8906 16.2266 14.4844 16.2891 14.1562 16.3047C13.9844 16.3047 13.8516 16.2422 13.7578 16.1172C13.6797 15.9766 13.6406 15.8203 13.6406 15.6484C13.6406 15.5078 13.6797 15.3672 13.7578 15.2266C13.8359 15.0703 13.9688 14.9922 14.1562 14.9922C14.4531 14.9922 14.7656 14.9609 15.0938 14.8984C15.4375 14.8359 15.75 14.7422 16.0312 14.6172C16.3281 14.4766 16.5703 14.3047 16.7578 14.1016C16.9453 13.8984 17.0391 13.6562 17.0391 13.375C17.0391 12.9531 16.7188 12.7422 16.0781 12.7422C15.6562 12.7422 15.2109 12.8047 14.7422 12.9297C14.2734 13.0391 13.8438 13.2109 13.4531 13.4453C13.0625 13.6797 12.7344 13.9766 12.4688 14.3359C12.2188 14.6797 12.0938 15.0859 12.0938 15.5547C12.0938 15.9141 12.2031 16.2344 12.4219 16.5156C12.6562 16.7969 12.9531 17.0469 13.3125 17.2656C13.6875 17.4688 14.1094 17.625 14.5781 17.7344C15.0625 17.8438 15.5625 17.8984 16.0781 17.8984C16.2031 17.8984 16.3281 17.8984 16.4531 17.8984C16.5781 17.8828 16.7031 17.8672 16.8281 17.8516ZM26.1562 11.9453C26.2031 11.7578 26.2812 11.625 26.3906 11.5469C26.5156 11.4531 26.6484 11.4062 26.7891 11.4062C26.9609 11.4062 27.1094 11.4688 27.2344 11.5938C27.375 11.7188 27.4453 11.8984 27.4453 12.1328C27.4453 12.2422 27.4375 12.3203 27.4219 12.3672C27.1562 13.1953 26.875 14.0078 26.5781 14.8047C26.2969 15.5859 26.0078 16.2812 25.7109 16.8906C25.4141 17.5 25.1094 17.9922 24.7969 18.3672C24.5 18.7422 24.2109 18.9297 23.9297 18.9297C23.6172 18.9297 23.2891 18.7422 22.9453 18.3672C22.6016 17.9766 22.2578 17.4609 21.9141 16.8203C21.5703 16.1797 21.2266 15.4453 20.8828 14.6172C20.5547 13.7734 20.25 12.8984 19.9688 11.9922C19.9375 11.8984 19.9219 11.8281 19.9219 11.7812C19.9219 11.5938 20 11.4375 20.1562 11.3125C20.3281 11.1719 20.5078 11.1016 20.6953 11.1016C20.8359 11.1016 20.9688 11.1406 21.0938 11.2188C21.2188 11.2969 21.2969 11.4453 21.3281 11.6641C21.4688 12.1641 21.6562 12.7344 21.8906 13.375C22.1406 14 22.3906 14.5938 22.6406 15.1562C22.8906 15.7031 23.125 16.1719 23.3438 16.5625C23.5781 16.9375 23.75 17.125 23.8594 17.125C23.9531 17.125 24.0938 16.9531 24.2812 16.6094C24.4844 16.25 24.6953 15.8125 24.9141 15.2969C25.1328 14.7812 25.3516 14.2266 25.5703 13.6328C25.7891 13.0234 25.9844 12.4609 26.1562 11.9453ZM30.8438 12.3203C30.8125 12.6797 30.7812 13.0547 30.75 13.4453C30.7344 13.8359 30.7266 14.2344 30.7266 14.6406C30.7266 15.2188 30.75 15.7969 30.7969 16.375C30.8594 16.9531 30.8906 17.5156 30.8906 18.0625C30.8906 18.375 30.8125 18.6094 30.6562 18.7656C30.5156 18.9219 30.3594 19 30.1875 19C30.0312 19 29.8984 18.9453 29.7891 18.8359C29.6953 18.7109 29.6406 18.5234 29.625 18.2734C29.5781 17.5703 29.5312 16.9297 29.4844 16.3516C29.4531 15.7578 29.4375 15.1641 29.4375 14.5703C29.4375 14.3359 29.4297 14.0391 29.4141 13.6797C29.4141 13.3047 29.4297 12.9531 29.4609 12.625C29.5078 12.2812 29.5859 11.9922 29.6953 11.7578C29.8203 11.5078 30.0078 11.3828 30.2578 11.3828C30.4141 11.3828 30.5469 11.4531 30.6562 11.5938C30.7812 11.7344 30.8438 11.9219 30.8438 12.1562V12.3203ZM29.7188 6.97656C29.7812 6.94531 29.8359 6.92969 29.8828 6.92969C29.9453 6.92969 30 6.9375 30.0469 6.95312C30.1094 6.96875 30.1562 6.97656 30.1875 6.97656C30.2656 6.96094 30.3359 6.95312 30.3984 6.95312C30.4609 6.9375 30.5312 6.92969 30.6094 6.92969C31.125 6.92969 31.5078 7.10156 31.7578 7.44531C32.0234 7.78906 32.1562 8.15625 32.1562 8.54688C32.1562 8.73438 32.1094 8.9375 32.0156 9.15625C31.9375 9.375 31.8125 9.57812 31.6406 9.76562C31.4844 9.9375 31.2812 10.0859 31.0312 10.2109C30.7812 10.3359 30.4922 10.3984 30.1641 10.3984C29.9453 10.3984 29.7422 10.3438 29.5547 10.2344C29.3672 10.125 29.2031 9.99219 29.0625 9.83594C28.9219 9.66406 28.8125 9.47656 28.7344 9.27344C28.6562 9.05469 28.6172 8.84375 28.6172 8.64062C28.6172 8.32812 28.7188 8 28.9219 7.65625C29.1406 7.3125 29.4062 7.08594 29.7188 6.97656ZM30.2812 8.19531H30.0938C30.0156 8.22656 29.9609 8.28125 29.9297 8.35938C29.8984 8.4375 29.8828 8.51562 29.8828 8.59375C29.8828 8.73438 29.9375 8.86719 30.0469 8.99219C30.1562 9.10156 30.2578 9.15625 30.3516 9.15625C30.5859 9.15625 30.7422 9.08594 30.8203 8.94531C30.8984 8.78906 30.9375 8.64844 30.9375 8.52344C30.8594 8.27344 30.7031 8.14844 30.4688 8.14844C30.4375 8.14844 30.375 8.16406 30.2812 8.19531ZM36 12.7891C35.7188 12.9141 35.5781 13.125 35.5781 13.4219C35.5781 13.6094 35.7188 13.8359 36 14.1016C36.2969 14.3672 36.625 14.6406 36.9844 14.9219C37.3594 15.1875 37.7188 15.4453 38.0625 15.6953C38.4062 15.9453 38.6406 16.1484 38.7656 16.3047C39 16.6328 39.1172 16.9688 39.1172 17.3125C39.1172 17.6719 39.0391 17.9609 38.8828 18.1797C38.7422 18.3984 38.5391 18.5703 38.2734 18.6953C38.0234 18.8203 37.7266 18.9062 37.3828 18.9531C37.0547 19 36.7109 19.0234 36.3516 19.0234C36.1016 19.0234 35.7969 19.0156 35.4375 19C35.0781 18.9844 34.7266 18.9453 34.3828 18.8828C34.0547 18.8203 33.7734 18.7344 33.5391 18.625C33.3047 18.5 33.1875 18.3438 33.1875 18.1562C33.1875 18 33.2344 17.8359 33.3281 17.6641C33.4219 17.4922 33.5547 17.4062 33.7266 17.4062C33.7422 17.4062 33.7578 17.4141 33.7734 17.4297C33.7891 17.4297 33.8125 17.4297 33.8438 17.4297C34.1875 17.5234 34.625 17.5938 35.1562 17.6406C35.6875 17.6875 36.2031 17.7109 36.7031 17.7109C36.9688 17.7109 37.1875 17.6719 37.3594 17.5938C37.5312 17.5 37.6172 17.3672 37.6172 17.1953C37.6172 17.0391 37.5391 16.875 37.3828 16.7031C37.2266 16.5156 37.0312 16.3359 36.7969 16.1641C36.5781 15.9922 36.3438 15.8281 36.0938 15.6719C35.8594 15.5156 35.6562 15.375 35.4844 15.25C34.9844 14.9062 34.6172 14.5859 34.3828 14.2891C34.1641 13.9766 34.0547 13.6406 34.0547 13.2812C34.0547 12.875 34.1562 12.5469 34.3594 12.2969C34.5781 12.0312 34.8516 11.8203 35.1797 11.6641C35.5078 11.5078 35.8672 11.4062 36.2578 11.3594C36.6641 11.2969 37.0547 11.2656 37.4297 11.2656C37.6484 11.2656 37.8672 11.2734 38.0859 11.2891C38.3047 11.3047 38.5 11.3438 38.6719 11.4062C38.8438 11.4531 38.9844 11.5312 39.0938 11.6406C39.2031 11.7344 39.2578 11.8672 39.2578 12.0391C39.2578 12.2109 39.2188 12.3594 39.1406 12.4844C39.0781 12.6094 38.9688 12.6719 38.8125 12.6719C38.6719 12.6719 38.4609 12.6484 38.1797 12.6016C37.9141 12.5547 37.6016 12.5312 37.2422 12.5312C36.7578 12.5312 36.3438 12.6172 36 12.7891ZM42.75 12.3203C42.7188 12.6797 42.6875 13.0547 42.6562 13.4453C42.6406 13.8359 42.6328 14.2344 42.6328 14.6406C42.6328 15.2188 42.6562 15.7969 42.7031 16.375C42.7656 16.9531 42.7969 17.5156 42.7969 18.0625C42.7969 18.375 42.7188 18.6094 42.5625 18.7656C42.4219 18.9219 42.2656 19 42.0938 19C41.9375 19 41.8047 18.9453 41.6953 18.8359C41.6016 18.7109 41.5469 18.5234 41.5312 18.2734C41.4844 17.5703 41.4375 16.9297 41.3906 16.3516C41.3594 15.7578 41.3438 15.1641 41.3438 14.5703C41.3438 14.3359 41.3359 14.0391 41.3203 13.6797C41.3203 13.3047 41.3359 12.9531 41.3672 12.625C41.4141 12.2812 41.4922 11.9922 41.6016 11.7578C41.7266 11.5078 41.9141 11.3828 42.1641 11.3828C42.3203 11.3828 42.4531 11.4531 42.5625 11.5938C42.6875 11.7344 42.75 11.9219 42.75 12.1562V12.3203ZM41.625 6.97656C41.6875 6.94531 41.7422 6.92969 41.7891 6.92969C41.8516 6.92969 41.9062 6.9375 41.9531 6.95312C42.0156 6.96875 42.0625 6.97656 42.0938 6.97656C42.1719 6.96094 42.2422 6.95312 42.3047 6.95312C42.3672 6.9375 42.4375 6.92969 42.5156 6.92969C43.0312 6.92969 43.4141 7.10156 43.6641 7.44531C43.9297 7.78906 44.0625 8.15625 44.0625 8.54688C44.0625 8.73438 44.0156 8.9375 43.9219 9.15625C43.8438 9.375 43.7188 9.57812 43.5469 9.76562C43.3906 9.9375 43.1875 10.0859 42.9375 10.2109C42.6875 10.3359 42.3984 10.3984 42.0703 10.3984C41.8516 10.3984 41.6484 10.3438 41.4609 10.2344C41.2734 10.125 41.1094 9.99219 40.9688 9.83594C40.8281 9.66406 40.7188 9.47656 40.6406 9.27344C40.5625 9.05469 40.5234 8.84375 40.5234 8.64062C40.5234 8.32812 40.625 8 40.8281 7.65625C41.0469 7.3125 41.3125 7.08594 41.625 6.97656ZM42.1875 8.19531H42C41.9219 8.22656 41.8672 8.28125 41.8359 8.35938C41.8047 8.4375 41.7891 8.51562 41.7891 8.59375C41.7891 8.73438 41.8438 8.86719 41.9531 8.99219C42.0625 9.10156 42.1641 9.15625 42.2578 9.15625C42.4922 9.15625 42.6484 9.08594 42.7266 8.94531C42.8047 8.78906 42.8438 8.64844 42.8438 8.52344C42.7656 8.27344 42.6094 8.14844 42.375 8.14844C42.3438 8.14844 42.2812 8.16406 42.1875 8.19531ZM48.1406 11.4297C48.3281 11.3516 48.4688 11.3125 48.5625 11.3125C48.6875 11.3125 48.8125 11.3516 48.9375 11.4297C49.0469 11.4141 49.1641 11.3984 49.2891 11.3828C49.4297 11.3516 49.5469 11.3359 49.6406 11.3359C50.1562 11.3359 50.625 11.4453 51.0469 11.6641C51.4688 11.8672 51.8281 12.1484 52.125 12.5078C52.4375 12.8672 52.6797 13.2891 52.8516 13.7734C53.0234 14.2578 53.1094 14.7734 53.1094 15.3203C53.1094 15.8047 53.0156 16.2734 52.8281 16.7266C52.6562 17.1641 52.4062 17.5547 52.0781 17.8984C51.7656 18.2422 51.3984 18.5156 50.9766 18.7188C50.5547 18.9219 50.1094 19.0234 49.6406 19.0234C49.0625 19.0234 48.5312 18.9297 48.0469 18.7422C47.5625 18.5547 47.1484 18.2969 46.8047 17.9688C46.4609 17.6406 46.1875 17.25 45.9844 16.7969C45.7969 16.3438 45.7031 15.8516 45.7031 15.3203C45.7031 14.8984 45.75 14.4688 45.8438 14.0312C45.9375 13.5781 46.0859 13.1641 46.2891 12.7891C46.4922 12.4141 46.7422 12.1016 47.0391 11.8516C47.3516 11.6016 47.7188 11.4609 48.1406 11.4297ZM48.4219 12.6484C48.0938 12.6953 47.8438 12.8203 47.6719 13.0234C47.5 13.2109 47.3672 13.4375 47.2734 13.7031C47.1953 13.9688 47.1484 14.25 47.1328 14.5469C47.1172 14.8281 47.1094 15.0859 47.1094 15.3203C47.1094 15.6016 47.1562 15.8906 47.25 16.1875C47.3438 16.4688 47.4922 16.7266 47.6953 16.9609C47.9141 17.1797 48.1797 17.3594 48.4922 17.5C48.8047 17.6406 49.1875 17.7109 49.6406 17.7109C49.9844 17.7109 50.2891 17.6484 50.5547 17.5234C50.8359 17.3828 51.0625 17.2031 51.2344 16.9844C51.4219 16.75 51.5625 16.4922 51.6562 16.2109C51.75 15.9297 51.7969 15.6328 51.7969 15.3203C51.7969 14.5078 51.6016 13.8438 51.2109 13.3281C50.8203 12.7969 50.2969 12.5078 49.6406 12.4609H49.1953C49.0703 12.4609 48.9375 12.4922 48.7969 12.5547C48.6562 12.6172 48.5312 12.6484 48.4219 12.6484ZM57.2812 11.8984C57.5312 11.7422 57.8203 11.6328 58.1484 11.5703C58.4922 11.5078 58.8438 11.4766 59.2031 11.4766C59.7031 11.5078 60.1328 11.5938 60.4922 11.7344C60.8516 11.875 61.1484 12.0859 61.3828 12.3672C61.6172 12.6328 61.7891 12.9844 61.8984 13.4219C62.0078 13.8438 62.0625 14.3672 62.0625 14.9922C62.0625 15.6328 62.0312 16.2344 61.9688 16.7969C61.9062 17.3438 61.8203 17.8281 61.7109 18.25C61.6016 18.6562 61.4688 18.9766 61.3125 19.2109C61.1719 19.4609 61.0078 19.5859 60.8203 19.5859C60.6797 19.5859 60.5547 19.5391 60.4453 19.4453C60.3359 19.3516 60.2812 19.2031 60.2812 19C60.2812 18.7969 60.3047 18.5391 60.3516 18.2266C60.4141 17.8984 60.4766 17.5547 60.5391 17.1953C60.6172 16.8203 60.6797 16.4453 60.7266 16.0703C60.7891 15.6797 60.8203 15.3203 60.8203 14.9922C60.8203 14.5391 60.7812 14.1797 60.7031 13.9141C60.6406 13.6328 60.5391 13.4141 60.3984 13.2578C60.2734 13.0859 60.1094 12.9688 59.9062 12.9062C59.7031 12.8281 59.4688 12.7734 59.2031 12.7422C58.875 12.7422 58.5469 12.7969 58.2188 12.9062C57.8906 13.0156 57.6094 13.0703 57.375 13.0703C57.2344 13.0703 57.1172 13.0156 57.0234 12.9062C56.9453 12.7969 56.9062 12.6719 56.9062 12.5312C56.9062 12.4219 56.9297 12.3125 56.9766 12.2031C57.0391 12.0781 57.1406 11.9766 57.2812 11.8984ZM56.25 11.6641C56.25 12.6953 56.2578 13.7422 56.2734 14.8047C56.2891 15.8516 56.3594 16.8047 56.4844 17.6641V17.8281C56.4844 18.0938 56.4141 18.2969 56.2734 18.4375C56.1484 18.5625 56.0078 18.625 55.8516 18.625C55.7109 18.625 55.5781 18.5625 55.4531 18.4375C55.3281 18.3125 55.25 18.1172 55.2188 17.8516C55.1406 17.1016 55.0781 16.3281 55.0312 15.5312C54.9844 14.7344 54.9609 13.9141 54.9609 13.0703C54.9609 12.8984 54.9531 12.7031 54.9375 12.4844C54.9219 12.2656 54.9219 12.0625 54.9375 11.875C54.9688 11.6719 55.0312 11.5078 55.125 11.3828C55.2344 11.2422 55.3984 11.1719 55.6172 11.1719C55.7734 11.1719 55.9141 11.2266 56.0391 11.3359C56.1797 11.4297 56.25 11.5391 56.25 11.6641ZM71.7188 18.0391C71.8281 18.1953 71.8828 18.3516 71.8828 18.5078C71.8828 18.7109 71.8047 18.8828 71.6484 19.0234C71.4922 19.1641 71.3125 19.2344 71.1094 19.2344C70.8906 19.2344 70.6172 19.0234 70.2891 18.6016C69.9609 18.1797 69.6172 17.6641 69.2578 17.0547C68.8984 16.4453 68.5547 15.8125 68.2266 15.1562C67.8984 14.4844 67.6406 13.8984 67.4531 13.3984C67.4219 13.3359 67.3828 13.2578 67.3359 13.1641C67.3047 13.0547 67.2891 12.9375 67.2891 12.8125C67.2891 12.6562 67.3359 12.4609 67.4297 12.2266C67.5391 11.9922 67.7812 11.7891 68.1562 11.6172C68.6406 11.3828 69.0312 11.1719 69.3281 10.9844C69.6406 10.7969 69.875 10.625 70.0312 10.4688C70.1875 10.2969 70.2891 10.1406 70.3359 10C70.3984 9.85938 70.4297 9.72656 70.4297 9.60156C70.4297 9.11719 70.1719 8.76562 69.6562 8.54688C69.1562 8.3125 68.5234 8.19531 67.7578 8.19531C67.4453 8.19531 67.1094 8.21094 66.75 8.24219C66.4062 8.27344 66.0312 8.32031 65.625 8.38281C65.75 8.89844 65.8359 9.50781 65.8828 10.2109C65.9453 10.9141 65.9766 11.6641 65.9766 12.4609C65.9766 13.0547 65.9609 13.6484 65.9297 14.2422C65.9141 14.8359 65.8906 15.3984 65.8594 15.9297C65.8281 16.4609 65.7812 16.9453 65.7188 17.3828C65.6719 17.8203 65.625 18.1797 65.5781 18.4609C65.5469 18.6797 65.4531 18.8438 65.2969 18.9531C65.1562 19.0625 65.0078 19.1172 64.8516 19.1172C64.6797 19.1172 64.5156 19.0625 64.3594 18.9531C64.2188 18.8438 64.1484 18.6797 64.1484 18.4609C64.1484 18.3828 64.1562 18.3203 64.1719 18.2734C64.2812 17.5078 64.375 16.6094 64.4531 15.5781C64.5312 14.5469 64.5703 13.5156 64.5703 12.4844C64.5703 11.625 64.5391 10.8281 64.4766 10.0938C64.4141 9.35938 64.3125 8.77344 64.1719 8.33594C64.0938 8.10156 64.0547 7.92188 64.0547 7.79688C64.0547 7.5625 64.1094 7.38281 64.2188 7.25781C64.3281 7.11719 64.4688 7.04688 64.6406 7.04688C64.7344 7.04688 64.8281 7.07031 64.9219 7.11719H64.9688C65.4531 7.07031 65.9141 7.03125 66.3516 7C66.8047 6.96875 67.2344 6.95312 67.6406 6.95312C68.2031 6.95312 68.7422 6.99219 69.2578 7.07031C69.7891 7.14844 70.25 7.28906 70.6406 7.49219C71.0312 7.69531 71.3438 7.96094 71.5781 8.28906C71.8125 8.61719 71.9297 9.02344 71.9297 9.50781C71.9297 10.0391 71.6875 10.5859 71.2031 11.1484C70.7188 11.6953 69.9062 12.2578 68.7656 12.8359C68.9062 13.1953 69.0938 13.625 69.3281 14.125C69.5781 14.625 69.8438 15.125 70.125 15.625C70.4219 16.125 70.7109 16.5938 70.9922 17.0312C71.2734 17.4688 71.5156 17.8047 71.7188 18.0391Z" fill="#398DFF"/>
</svg>
