<svg width="135" height="16" viewBox="0 0 135 16" fill="none" xmlns="http://www.w3.org/2000/svg">
<circle cx="80.5" cy="8.5" r="7.5" fill="#398DFF"/>
<circle cx="80.5" cy="8.5" r="3.5" fill="#F5F8FC"/>
<circle cx="104" cy="11.5" r="1.5" fill="#F5F8FC"/>
<path d="M95.6562 6.27344C95.7969 5.94531 96.0625 5.71875 96.4531 5.59375C96.8438 5.46875 97.25 5.40625 97.6719 5.40625C98.5781 5.48438 99.1875 5.80469 99.5 6.36719C99.8125 6.92969 99.9688 7.72656 99.9688 8.75781C99.9688 9.39844 99.9375 10 99.875 10.5625C99.8125 11.1094 99.7266 11.5859 99.6172 11.9922C99.5234 12.3984 99.3984 12.7266 99.2422 12.9766C99.1016 13.2109 98.9453 13.3281 98.7734 13.3281C98.6328 13.3281 98.5078 13.2656 98.3984 13.1406C98.3047 13.0156 98.2578 12.8438 98.2578 12.625C98.2578 12.3438 98.2812 12.0391 98.3281 11.7109C98.375 11.3672 98.4297 11.0234 98.4922 10.6797C98.5547 10.3359 98.6094 9.99219 98.6562 9.64844C98.7031 9.30469 98.7266 8.96875 98.7266 8.64062C98.7266 7.98438 98.625 7.48438 98.4219 7.14062C98.2188 6.78125 97.8672 6.60156 97.3672 6.60156C97.0859 6.63281 96.8281 6.73438 96.5938 6.90625C96.3594 7.0625 96.2031 7.28906 96.125 7.58594C96.1406 7.74219 96.1484 7.90625 96.1484 8.07812C96.1641 8.25 96.1719 8.42969 96.1719 8.61719C96.1719 9.25781 96.1406 9.86719 96.0781 10.4453C96.0312 11.0234 95.9531 11.5312 95.8438 11.9688C95.7344 12.3906 95.6016 12.7344 95.4453 13C95.3047 13.25 95.1406 13.375 94.9531 13.375C94.7969 13.375 94.6641 13.3125 94.5547 13.1875C94.4609 13.0625 94.4141 12.8906 94.4141 12.6719C94.4141 12.3906 94.4375 12.0938 94.4844 11.7812C94.5469 11.4531 94.6016 11.125 94.6484 10.7969C94.7109 10.4531 94.7656 10.1172 94.8125 9.78906C94.875 9.44531 94.9062 9.10938 94.9062 8.78125C94.9062 8.17188 94.8359 7.67969 94.6953 7.30469C94.5703 6.91406 94.2656 6.71875 93.7812 6.71875C93.4688 6.71875 93.1797 6.78906 92.9141 6.92969C92.6484 7.05469 92.4609 7.11719 92.3516 7.11719C92.2266 7.11719 92.1172 7.05469 92.0234 6.92969C91.9453 6.80469 91.9062 6.67188 91.9062 6.53125C91.9062 6.35938 91.9688 6.21094 92.0938 6.08594C92.2344 5.94531 92.4062 5.83594 92.6094 5.75781C92.8125 5.66406 93.0391 5.59375 93.2891 5.54688C93.5391 5.5 93.7812 5.47656 94.0156 5.47656C94.3438 5.47656 94.6484 5.54688 94.9297 5.6875C95.2266 5.8125 95.4688 6.00781 95.6562 6.27344ZM91.2969 5.66406C91.2812 5.94531 91.2734 6.23438 91.2734 6.53125C91.2734 6.8125 91.2734 7.10156 91.2734 7.39844C91.2734 8.19531 91.2891 8.98438 91.3203 9.76562C91.3672 10.5312 91.4375 11.2266 91.5312 11.8516C91.5312 12.1172 91.4688 12.3125 91.3438 12.4375C91.2344 12.5469 91.0938 12.6016 90.9219 12.6016C90.7656 12.6016 90.625 12.5469 90.5 12.4375C90.375 12.3281 90.2969 12.1641 90.2656 11.9453C90.1719 11.2578 90.1016 10.5391 90.0547 9.78906C90.0078 9.03906 89.9844 8.26562 89.9844 7.46875C89.9844 7.26562 89.9766 7.03125 89.9609 6.76562C89.9453 6.5 89.9531 6.25 89.9844 6.01562C90.0156 5.78125 90.0781 5.58594 90.1719 5.42969C90.2812 5.25781 90.4531 5.17188 90.6875 5.17188C90.8438 5.17188 90.9844 5.22656 91.1094 5.33594C91.2344 5.42969 91.2969 5.53906 91.2969 5.66406ZM110.375 11.7578C110.547 11.8047 110.68 11.8984 110.773 12.0391C110.867 12.1641 110.914 12.3047 110.914 12.4609C110.914 12.6484 110.859 12.8203 110.75 12.9766C110.641 13.1172 110.484 13.1875 110.281 13.1875C110.172 13.1875 110.062 13.1641 109.953 13.1172C109.312 12.9609 108.836 12.7422 108.523 12.4609C108.211 12.1641 107.992 11.8125 107.867 11.4062C107.742 11 107.68 10.5312 107.68 10C107.68 9.45312 107.68 8.83594 107.68 8.14844C107.68 7.60156 107.688 7.03906 107.703 6.46094C107.719 5.88281 107.742 5.3125 107.773 4.75C107.805 4.17188 107.844 3.61719 107.891 3.08594C107.938 2.55469 107.984 2.07031 108.031 1.63281C108.047 1.39844 108.109 1.22656 108.219 1.11719C108.344 1.00781 108.484 0.953125 108.641 0.953125C108.812 0.953125 108.977 1.01562 109.133 1.14062C109.305 1.26562 109.391 1.46094 109.391 1.72656C109.344 2.17969 109.297 2.73438 109.25 3.39062C109.219 4.03125 109.188 4.71094 109.156 5.42969C109.141 6.14844 109.125 6.86719 109.109 7.58594C109.094 8.30469 109.086 8.95312 109.086 9.53125C109.086 9.84375 109.086 10.125 109.086 10.375C109.102 10.6094 109.148 10.8203 109.227 11.0078C109.32 11.1797 109.453 11.3281 109.625 11.4531C109.797 11.5781 110.047 11.6797 110.375 11.7578ZM114.406 6.32031C114.375 6.67969 114.344 7.05469 114.312 7.44531C114.297 7.83594 114.289 8.23438 114.289 8.64062C114.289 9.21875 114.312 9.79688 114.359 10.375C114.422 10.9531 114.453 11.5156 114.453 12.0625C114.453 12.375 114.375 12.6094 114.219 12.7656C114.078 12.9219 113.922 13 113.75 13C113.594 13 113.461 12.9453 113.352 12.8359C113.258 12.7109 113.203 12.5234 113.188 12.2734C113.141 11.5703 113.094 10.9297 113.047 10.3516C113.016 9.75781 113 9.16406 113 8.57031C113 8.33594 112.992 8.03906 112.977 7.67969C112.977 7.30469 112.992 6.95312 113.023 6.625C113.07 6.28125 113.148 5.99219 113.258 5.75781C113.383 5.50781 113.57 5.38281 113.82 5.38281C113.977 5.38281 114.109 5.45312 114.219 5.59375C114.344 5.73438 114.406 5.92188 114.406 6.15625V6.32031ZM113.281 0.976562C113.344 0.945312 113.398 0.929688 113.445 0.929688C113.508 0.929688 113.562 0.9375 113.609 0.953125C113.672 0.96875 113.719 0.976562 113.75 0.976562C113.828 0.960938 113.898 0.953125 113.961 0.953125C114.023 0.9375 114.094 0.929688 114.172 0.929688C114.688 0.929688 115.07 1.10156 115.32 1.44531C115.586 1.78906 115.719 2.15625 115.719 2.54688C115.719 2.73438 115.672 2.9375 115.578 3.15625C115.5 3.375 115.375 3.57812 115.203 3.76562C115.047 3.9375 114.844 4.08594 114.594 4.21094C114.344 4.33594 114.055 4.39844 113.727 4.39844C113.508 4.39844 113.305 4.34375 113.117 4.23438C112.93 4.125 112.766 3.99219 112.625 3.83594C112.484 3.66406 112.375 3.47656 112.297 3.27344C112.219 3.05469 112.18 2.84375 112.18 2.64062C112.18 2.32812 112.281 2 112.484 1.65625C112.703 1.3125 112.969 1.08594 113.281 0.976562ZM113.844 2.19531H113.656C113.578 2.22656 113.523 2.28125 113.492 2.35938C113.461 2.4375 113.445 2.51562 113.445 2.59375C113.445 2.73438 113.5 2.86719 113.609 2.99219C113.719 3.10156 113.82 3.15625 113.914 3.15625C114.148 3.15625 114.305 3.08594 114.383 2.94531C114.461 2.78906 114.5 2.64844 114.5 2.52344C114.422 2.27344 114.266 2.14844 114.031 2.14844C114 2.14844 113.938 2.16406 113.844 2.19531ZM123.688 5.94531C123.734 5.75781 123.812 5.625 123.922 5.54688C124.047 5.45312 124.18 5.40625 124.32 5.40625C124.492 5.40625 124.641 5.46875 124.766 5.59375C124.906 5.71875 124.977 5.89844 124.977 6.13281C124.977 6.24219 124.969 6.32031 124.953 6.36719C124.688 7.19531 124.406 8.00781 124.109 8.80469C123.828 9.58594 123.539 10.2812 123.242 10.8906C122.945 11.5 122.641 11.9922 122.328 12.3672C122.031 12.7422 121.742 12.9297 121.461 12.9297C121.148 12.9297 120.82 12.7422 120.477 12.3672C120.133 11.9766 119.789 11.4609 119.445 10.8203C119.102 10.1797 118.758 9.44531 118.414 8.61719C118.086 7.77344 117.781 6.89844 117.5 5.99219C117.469 5.89844 117.453 5.82812 117.453 5.78125C117.453 5.59375 117.531 5.4375 117.688 5.3125C117.859 5.17188 118.039 5.10156 118.227 5.10156C118.367 5.10156 118.5 5.14062 118.625 5.21875C118.75 5.29688 118.828 5.44531 118.859 5.66406C119 6.16406 119.188 6.73438 119.422 7.375C119.672 8 119.922 8.59375 120.172 9.15625C120.422 9.70312 120.656 10.1719 120.875 10.5625C121.109 10.9375 121.281 11.125 121.391 11.125C121.484 11.125 121.625 10.9531 121.812 10.6094C122.016 10.25 122.227 9.8125 122.445 9.29688C122.664 8.78125 122.883 8.22656 123.102 7.63281C123.32 7.02344 123.516 6.46094 123.688 5.94531ZM132.594 11.8516C132.859 11.8516 133.055 11.9141 133.18 12.0391C133.305 12.1484 133.367 12.2969 133.367 12.4844C133.367 12.6875 133.312 12.8438 133.203 12.9531C133.109 13.0469 132.984 13.1172 132.828 13.1641C132.688 13.2109 132.523 13.2344 132.336 13.2344C132.164 13.2344 132.008 13.2344 131.867 13.2344C131.211 13.2344 130.555 13.1562 129.898 13C129.258 12.8281 128.68 12.5781 128.164 12.25C127.648 11.9219 127.227 11.5156 126.898 11.0312C126.57 10.5469 126.406 9.99219 126.406 9.36719C126.406 8.69531 126.586 8.11719 126.945 7.63281C127.32 7.13281 127.781 6.71875 128.328 6.39062C128.875 6.0625 129.461 5.82031 130.086 5.66406C130.711 5.50781 131.289 5.42969 131.82 5.42969C132.086 5.42969 132.352 5.46094 132.617 5.52344C132.898 5.58594 133.148 5.69531 133.367 5.85156C133.586 6.00781 133.766 6.21875 133.906 6.48438C134.047 6.75 134.117 7.08594 134.117 7.49219C134.117 7.97656 133.961 8.39062 133.648 8.73438C133.336 9.07812 132.961 9.36719 132.523 9.60156C132.086 9.83594 131.625 10.0078 131.141 10.1172C130.656 10.2266 130.25 10.2891 129.922 10.3047C129.75 10.3047 129.617 10.2422 129.523 10.1172C129.445 9.97656 129.406 9.82031 129.406 9.64844C129.406 9.50781 129.445 9.36719 129.523 9.22656C129.602 9.07031 129.734 8.99219 129.922 8.99219C130.219 8.99219 130.531 8.96094 130.859 8.89844C131.203 8.83594 131.516 8.74219 131.797 8.61719C132.094 8.47656 132.336 8.30469 132.523 8.10156C132.711 7.89844 132.805 7.65625 132.805 7.375C132.805 6.95312 132.484 6.74219 131.844 6.74219C131.422 6.74219 130.977 6.80469 130.508 6.92969C130.039 7.03906 129.609 7.21094 129.219 7.44531C128.828 7.67969 128.5 7.97656 128.234 8.33594C127.984 8.67969 127.859 9.08594 127.859 9.55469C127.859 9.91406 127.969 10.2344 128.188 10.5156C128.422 10.7969 128.719 11.0469 129.078 11.2656C129.453 11.4688 129.875 11.625 130.344 11.7344C130.828 11.8438 131.328 11.8984 131.844 11.8984C131.969 11.8984 132.094 11.8984 132.219 11.8984C132.344 11.8828 132.469 11.8672 132.594 11.8516Z" fill="#F5F8FC"/>
<path d="M7.85938 12.0391C7.96875 12.1953 8.02344 12.3516 8.02344 12.5078C8.02344 12.7109 7.94531 12.8828 7.78906 13.0234C7.63281 13.1641 7.45312 13.2344 7.25 13.2344C7.03125 13.2344 6.75781 13.0234 6.42969 12.6016C6.10156 12.1797 5.75781 11.6641 5.39844 11.0547C5.03906 10.4453 4.69531 9.8125 4.36719 9.15625C4.03906 8.48438 3.78125 7.89844 3.59375 7.39844C3.5625 7.33594 3.52344 7.25781 3.47656 7.16406C3.44531 7.05469 3.42969 6.9375 3.42969 6.8125C3.42969 6.65625 3.47656 6.46094 3.57031 6.22656C3.67969 5.99219 3.92188 5.78906 4.29688 5.61719C4.78125 5.38281 5.17188 5.17188 5.46875 4.98438C5.78125 4.79688 6.01562 4.625 6.17188 4.46875C6.32812 4.29688 6.42969 4.14062 6.47656 4C6.53906 3.85938 6.57031 3.72656 6.57031 3.60156C6.57031 3.11719 6.3125 2.76562 5.79688 2.54688C5.29688 2.3125 4.66406 2.19531 3.89844 2.19531C3.58594 2.19531 3.25 2.21094 2.89062 2.24219C2.54688 2.27344 2.17188 2.32031 1.76562 2.38281C1.89062 2.89844 1.97656 3.50781 2.02344 4.21094C2.08594 4.91406 2.11719 5.66406 2.11719 6.46094C2.11719 7.05469 2.10156 7.64844 2.07031 8.24219C2.05469 8.83594 2.03125 9.39844 2 9.92969C1.96875 10.4609 1.92188 10.9453 1.85938 11.3828C1.8125 11.8203 1.76562 12.1797 1.71875 12.4609C1.6875 12.6797 1.59375 12.8438 1.4375 12.9531C1.29688 13.0625 1.14844 13.1172 0.992188 13.1172C0.820312 13.1172 0.65625 13.0625 0.5 12.9531C0.359375 12.8438 0.289062 12.6797 0.289062 12.4609C0.289062 12.3828 0.296875 12.3203 0.3125 12.2734C0.421875 11.5078 0.515625 10.6094 0.59375 9.57812C0.671875 8.54688 0.710938 7.51562 0.710938 6.48438C0.710938 5.625 0.679688 4.82812 0.617188 4.09375C0.554688 3.35938 0.453125 2.77344 0.3125 2.33594C0.234375 2.10156 0.195312 1.92188 0.195312 1.79688C0.195312 1.5625 0.25 1.38281 0.359375 1.25781C0.46875 1.11719 0.609375 1.04688 0.78125 1.04688C0.875 1.04688 0.96875 1.07031 1.0625 1.11719H1.10938C1.59375 1.07031 2.05469 1.03125 2.49219 1C2.94531 0.96875 3.375 0.953125 3.78125 0.953125C4.34375 0.953125 4.88281 0.992187 5.39844 1.07031C5.92969 1.14844 6.39062 1.28906 6.78125 1.49219C7.17188 1.69531 7.48438 1.96094 7.71875 2.28906C7.95312 2.61719 8.07031 3.02344 8.07031 3.50781C8.07031 4.03906 7.82812 4.58594 7.34375 5.14844C6.85938 5.69531 6.04688 6.25781 4.90625 6.83594C5.04688 7.19531 5.23438 7.625 5.46875 8.125C5.71875 8.625 5.98438 9.125 6.26562 9.625C6.5625 10.125 6.85156 10.5938 7.13281 11.0312C7.41406 11.4688 7.65625 11.8047 7.85938 12.0391ZM15.8281 11.8516C16.0938 11.8516 16.2891 11.9141 16.4141 12.0391C16.5391 12.1484 16.6016 12.2969 16.6016 12.4844C16.6016 12.6875 16.5469 12.8438 16.4375 12.9531C16.3438 13.0469 16.2188 13.1172 16.0625 13.1641C15.9219 13.2109 15.7578 13.2344 15.5703 13.2344C15.3984 13.2344 15.2422 13.2344 15.1016 13.2344C14.4453 13.2344 13.7891 13.1562 13.1328 13C12.4922 12.8281 11.9141 12.5781 11.3984 12.25C10.8828 11.9219 10.4609 11.5156 10.1328 11.0312C9.80469 10.5469 9.64062 9.99219 9.64062 9.36719C9.64062 8.69531 9.82031 8.11719 10.1797 7.63281C10.5547 7.13281 11.0156 6.71875 11.5625 6.39062C12.1094 6.0625 12.6953 5.82031 13.3203 5.66406C13.9453 5.50781 14.5234 5.42969 15.0547 5.42969C15.3203 5.42969 15.5859 5.46094 15.8516 5.52344C16.1328 5.58594 16.3828 5.69531 16.6016 5.85156C16.8203 6.00781 17 6.21875 17.1406 6.48438C17.2812 6.75 17.3516 7.08594 17.3516 7.49219C17.3516 7.97656 17.1953 8.39062 16.8828 8.73438C16.5703 9.07812 16.1953 9.36719 15.7578 9.60156C15.3203 9.83594 14.8594 10.0078 14.375 10.1172C13.8906 10.2266 13.4844 10.2891 13.1562 10.3047C12.9844 10.3047 12.8516 10.2422 12.7578 10.1172C12.6797 9.97656 12.6406 9.82031 12.6406 9.64844C12.6406 9.50781 12.6797 9.36719 12.7578 9.22656C12.8359 9.07031 12.9688 8.99219 13.1562 8.99219C13.4531 8.99219 13.7656 8.96094 14.0938 8.89844C14.4375 8.83594 14.75 8.74219 15.0312 8.61719C15.3281 8.47656 15.5703 8.30469 15.7578 8.10156C15.9453 7.89844 16.0391 7.65625 16.0391 7.375C16.0391 6.95312 15.7188 6.74219 15.0781 6.74219C14.6562 6.74219 14.2109 6.80469 13.7422 6.92969C13.2734 7.03906 12.8438 7.21094 12.4531 7.44531C12.0625 7.67969 11.7344 7.97656 11.4688 8.33594C11.2188 8.67969 11.0938 9.08594 11.0938 9.55469C11.0938 9.91406 11.2031 10.2344 11.4219 10.5156C11.6562 10.7969 11.9531 11.0469 12.3125 11.2656C12.6875 11.4688 13.1094 11.625 13.5781 11.7344C14.0625 11.8438 14.5625 11.8984 15.0781 11.8984C15.2031 11.8984 15.3281 11.8984 15.4531 11.8984C15.5781 11.8828 15.7031 11.8672 15.8281 11.8516ZM25.1562 5.94531C25.2031 5.75781 25.2812 5.625 25.3906 5.54688C25.5156 5.45312 25.6484 5.40625 25.7891 5.40625C25.9609 5.40625 26.1094 5.46875 26.2344 5.59375C26.375 5.71875 26.4453 5.89844 26.4453 6.13281C26.4453 6.24219 26.4375 6.32031 26.4219 6.36719C26.1562 7.19531 25.875 8.00781 25.5781 8.80469C25.2969 9.58594 25.0078 10.2812 24.7109 10.8906C24.4141 11.5 24.1094 11.9922 23.7969 12.3672C23.5 12.7422 23.2109 12.9297 22.9297 12.9297C22.6172 12.9297 22.2891 12.7422 21.9453 12.3672C21.6016 11.9766 21.2578 11.4609 20.9141 10.8203C20.5703 10.1797 20.2266 9.44531 19.8828 8.61719C19.5547 7.77344 19.25 6.89844 18.9688 5.99219C18.9375 5.89844 18.9219 5.82812 18.9219 5.78125C18.9219 5.59375 19 5.4375 19.1562 5.3125C19.3281 5.17188 19.5078 5.10156 19.6953 5.10156C19.8359 5.10156 19.9688 5.14062 20.0938 5.21875C20.2188 5.29688 20.2969 5.44531 20.3281 5.66406C20.4688 6.16406 20.6562 6.73438 20.8906 7.375C21.1406 8 21.3906 8.59375 21.6406 9.15625C21.8906 9.70312 22.125 10.1719 22.3438 10.5625C22.5781 10.9375 22.75 11.125 22.8594 11.125C22.9531 11.125 23.0938 10.9531 23.2812 10.6094C23.4844 10.25 23.6953 9.8125 23.9141 9.29688C24.1328 8.78125 24.3516 8.22656 24.5703 7.63281C24.7891 7.02344 24.9844 6.46094 25.1562 5.94531ZM29.8438 6.32031C29.8125 6.67969 29.7812 7.05469 29.75 7.44531C29.7344 7.83594 29.7266 8.23438 29.7266 8.64062C29.7266 9.21875 29.75 9.79688 29.7969 10.375C29.8594 10.9531 29.8906 11.5156 29.8906 12.0625C29.8906 12.375 29.8125 12.6094 29.6562 12.7656C29.5156 12.9219 29.3594 13 29.1875 13C29.0312 13 28.8984 12.9453 28.7891 12.8359C28.6953 12.7109 28.6406 12.5234 28.625 12.2734C28.5781 11.5703 28.5312 10.9297 28.4844 10.3516C28.4531 9.75781 28.4375 9.16406 28.4375 8.57031C28.4375 8.33594 28.4297 8.03906 28.4141 7.67969C28.4141 7.30469 28.4297 6.95312 28.4609 6.625C28.5078 6.28125 28.5859 5.99219 28.6953 5.75781C28.8203 5.50781 29.0078 5.38281 29.2578 5.38281C29.4141 5.38281 29.5469 5.45312 29.6562 5.59375C29.7812 5.73438 29.8438 5.92188 29.8438 6.15625V6.32031ZM28.7188 0.976562C28.7812 0.945312 28.8359 0.929688 28.8828 0.929688C28.9453 0.929688 29 0.9375 29.0469 0.953125C29.1094 0.96875 29.1562 0.976562 29.1875 0.976562C29.2656 0.960938 29.3359 0.953125 29.3984 0.953125C29.4609 0.9375 29.5312 0.929688 29.6094 0.929688C30.125 0.929688 30.5078 1.10156 30.7578 1.44531C31.0234 1.78906 31.1562 2.15625 31.1562 2.54688C31.1562 2.73438 31.1094 2.9375 31.0156 3.15625C30.9375 3.375 30.8125 3.57812 30.6406 3.76562C30.4844 3.9375 30.2812 4.08594 30.0312 4.21094C29.7812 4.33594 29.4922 4.39844 29.1641 4.39844C28.9453 4.39844 28.7422 4.34375 28.5547 4.23438C28.3672 4.125 28.2031 3.99219 28.0625 3.83594C27.9219 3.66406 27.8125 3.47656 27.7344 3.27344C27.6562 3.05469 27.6172 2.84375 27.6172 2.64062C27.6172 2.32812 27.7188 2 27.9219 1.65625C28.1406 1.3125 28.4062 1.08594 28.7188 0.976562ZM29.2812 2.19531H29.0938C29.0156 2.22656 28.9609 2.28125 28.9297 2.35938C28.8984 2.4375 28.8828 2.51562 28.8828 2.59375C28.8828 2.73438 28.9375 2.86719 29.0469 2.99219C29.1562 3.10156 29.2578 3.15625 29.3516 3.15625C29.5859 3.15625 29.7422 3.08594 29.8203 2.94531C29.8984 2.78906 29.9375 2.64844 29.9375 2.52344C29.8594 2.27344 29.7031 2.14844 29.4688 2.14844C29.4375 2.14844 29.375 2.16406 29.2812 2.19531ZM35 6.78906C34.7188 6.91406 34.5781 7.125 34.5781 7.42188C34.5781 7.60938 34.7188 7.83594 35 8.10156C35.2969 8.36719 35.625 8.64062 35.9844 8.92188C36.3594 9.1875 36.7188 9.44531 37.0625 9.69531C37.4062 9.94531 37.6406 10.1484 37.7656 10.3047C38 10.6328 38.1172 10.9688 38.1172 11.3125C38.1172 11.6719 38.0391 11.9609 37.8828 12.1797C37.7422 12.3984 37.5391 12.5703 37.2734 12.6953C37.0234 12.8203 36.7266 12.9062 36.3828 12.9531C36.0547 13 35.7109 13.0234 35.3516 13.0234C35.1016 13.0234 34.7969 13.0156 34.4375 13C34.0781 12.9844 33.7266 12.9453 33.3828 12.8828C33.0547 12.8203 32.7734 12.7344 32.5391 12.625C32.3047 12.5 32.1875 12.3438 32.1875 12.1562C32.1875 12 32.2344 11.8359 32.3281 11.6641C32.4219 11.4922 32.5547 11.4062 32.7266 11.4062C32.7422 11.4062 32.7578 11.4141 32.7734 11.4297C32.7891 11.4297 32.8125 11.4297 32.8438 11.4297C33.1875 11.5234 33.625 11.5938 34.1562 11.6406C34.6875 11.6875 35.2031 11.7109 35.7031 11.7109C35.9688 11.7109 36.1875 11.6719 36.3594 11.5938C36.5312 11.5 36.6172 11.3672 36.6172 11.1953C36.6172 11.0391 36.5391 10.875 36.3828 10.7031C36.2266 10.5156 36.0312 10.3359 35.7969 10.1641C35.5781 9.99219 35.3438 9.82812 35.0938 9.67188C34.8594 9.51562 34.6562 9.375 34.4844 9.25C33.9844 8.90625 33.6172 8.58594 33.3828 8.28906C33.1641 7.97656 33.0547 7.64062 33.0547 7.28125C33.0547 6.875 33.1562 6.54688 33.3594 6.29688C33.5781 6.03125 33.8516 5.82031 34.1797 5.66406C34.5078 5.50781 34.8672 5.40625 35.2578 5.35938C35.6641 5.29688 36.0547 5.26562 36.4297 5.26562C36.6484 5.26562 36.8672 5.27344 37.0859 5.28906C37.3047 5.30469 37.5 5.34375 37.6719 5.40625C37.8438 5.45312 37.9844 5.53125 38.0938 5.64062C38.2031 5.73438 38.2578 5.86719 38.2578 6.03906C38.2578 6.21094 38.2188 6.35938 38.1406 6.48438C38.0781 6.60938 37.9688 6.67188 37.8125 6.67188C37.6719 6.67188 37.4609 6.64844 37.1797 6.60156C36.9141 6.55469 36.6016 6.53125 36.2422 6.53125C35.7578 6.53125 35.3438 6.61719 35 6.78906ZM41.75 6.32031C41.7188 6.67969 41.6875 7.05469 41.6562 7.44531C41.6406 7.83594 41.6328 8.23438 41.6328 8.64062C41.6328 9.21875 41.6562 9.79688 41.7031 10.375C41.7656 10.9531 41.7969 11.5156 41.7969 12.0625C41.7969 12.375 41.7188 12.6094 41.5625 12.7656C41.4219 12.9219 41.2656 13 41.0938 13C40.9375 13 40.8047 12.9453 40.6953 12.8359C40.6016 12.7109 40.5469 12.5234 40.5312 12.2734C40.4844 11.5703 40.4375 10.9297 40.3906 10.3516C40.3594 9.75781 40.3438 9.16406 40.3438 8.57031C40.3438 8.33594 40.3359 8.03906 40.3203 7.67969C40.3203 7.30469 40.3359 6.95312 40.3672 6.625C40.4141 6.28125 40.4922 5.99219 40.6016 5.75781C40.7266 5.50781 40.9141 5.38281 41.1641 5.38281C41.3203 5.38281 41.4531 5.45312 41.5625 5.59375C41.6875 5.73438 41.75 5.92188 41.75 6.15625V6.32031ZM40.625 0.976562C40.6875 0.945312 40.7422 0.929688 40.7891 0.929688C40.8516 0.929688 40.9062 0.9375 40.9531 0.953125C41.0156 0.96875 41.0625 0.976562 41.0938 0.976562C41.1719 0.960938 41.2422 0.953125 41.3047 0.953125C41.3672 0.9375 41.4375 0.929688 41.5156 0.929688C42.0312 0.929688 42.4141 1.10156 42.6641 1.44531C42.9297 1.78906 43.0625 2.15625 43.0625 2.54688C43.0625 2.73438 43.0156 2.9375 42.9219 3.15625C42.8438 3.375 42.7188 3.57812 42.5469 3.76562C42.3906 3.9375 42.1875 4.08594 41.9375 4.21094C41.6875 4.33594 41.3984 4.39844 41.0703 4.39844C40.8516 4.39844 40.6484 4.34375 40.4609 4.23438C40.2734 4.125 40.1094 3.99219 39.9688 3.83594C39.8281 3.66406 39.7188 3.47656 39.6406 3.27344C39.5625 3.05469 39.5234 2.84375 39.5234 2.64062C39.5234 2.32812 39.625 2 39.8281 1.65625C40.0469 1.3125 40.3125 1.08594 40.625 0.976562ZM41.1875 2.19531H41C40.9219 2.22656 40.8672 2.28125 40.8359 2.35938C40.8047 2.4375 40.7891 2.51562 40.7891 2.59375C40.7891 2.73438 40.8438 2.86719 40.9531 2.99219C41.0625 3.10156 41.1641 3.15625 41.2578 3.15625C41.4922 3.15625 41.6484 3.08594 41.7266 2.94531C41.8047 2.78906 41.8438 2.64844 41.8438 2.52344C41.7656 2.27344 41.6094 2.14844 41.375 2.14844C41.3438 2.14844 41.2812 2.16406 41.1875 2.19531ZM47.1406 5.42969C47.3281 5.35156 47.4688 5.3125 47.5625 5.3125C47.6875 5.3125 47.8125 5.35156 47.9375 5.42969C48.0469 5.41406 48.1641 5.39844 48.2891 5.38281C48.4297 5.35156 48.5469 5.33594 48.6406 5.33594C49.1562 5.33594 49.625 5.44531 50.0469 5.66406C50.4688 5.86719 50.8281 6.14844 51.125 6.50781C51.4375 6.86719 51.6797 7.28906 51.8516 7.77344C52.0234 8.25781 52.1094 8.77344 52.1094 9.32031C52.1094 9.80469 52.0156 10.2734 51.8281 10.7266C51.6562 11.1641 51.4062 11.5547 51.0781 11.8984C50.7656 12.2422 50.3984 12.5156 49.9766 12.7188C49.5547 12.9219 49.1094 13.0234 48.6406 13.0234C48.0625 13.0234 47.5312 12.9297 47.0469 12.7422C46.5625 12.5547 46.1484 12.2969 45.8047 11.9688C45.4609 11.6406 45.1875 11.25 44.9844 10.7969C44.7969 10.3438 44.7031 9.85156 44.7031 9.32031C44.7031 8.89844 44.75 8.46875 44.8438 8.03125C44.9375 7.57812 45.0859 7.16406 45.2891 6.78906C45.4922 6.41406 45.7422 6.10156 46.0391 5.85156C46.3516 5.60156 46.7188 5.46094 47.1406 5.42969ZM47.4219 6.64844C47.0938 6.69531 46.8438 6.82031 46.6719 7.02344C46.5 7.21094 46.3672 7.4375 46.2734 7.70312C46.1953 7.96875 46.1484 8.25 46.1328 8.54688C46.1172 8.82812 46.1094 9.08594 46.1094 9.32031C46.1094 9.60156 46.1562 9.89062 46.25 10.1875C46.3438 10.4688 46.4922 10.7266 46.6953 10.9609C46.9141 11.1797 47.1797 11.3594 47.4922 11.5C47.8047 11.6406 48.1875 11.7109 48.6406 11.7109C48.9844 11.7109 49.2891 11.6484 49.5547 11.5234C49.8359 11.3828 50.0625 11.2031 50.2344 10.9844C50.4219 10.75 50.5625 10.4922 50.6562 10.2109C50.75 9.92969 50.7969 9.63281 50.7969 9.32031C50.7969 8.50781 50.6016 7.84375 50.2109 7.32812C49.8203 6.79688 49.2969 6.50781 48.6406 6.46094H48.1953C48.0703 6.46094 47.9375 6.49219 47.7969 6.55469C47.6562 6.61719 47.5312 6.64844 47.4219 6.64844ZM56.2812 5.89844C56.5312 5.74219 56.8203 5.63281 57.1484 5.57031C57.4922 5.50781 57.8438 5.47656 58.2031 5.47656C58.7031 5.50781 59.1328 5.59375 59.4922 5.73438C59.8516 5.875 60.1484 6.08594 60.3828 6.36719C60.6172 6.63281 60.7891 6.98438 60.8984 7.42188C61.0078 7.84375 61.0625 8.36719 61.0625 8.99219C61.0625 9.63281 61.0312 10.2344 60.9688 10.7969C60.9062 11.3438 60.8203 11.8281 60.7109 12.25C60.6016 12.6562 60.4688 12.9766 60.3125 13.2109C60.1719 13.4609 60.0078 13.5859 59.8203 13.5859C59.6797 13.5859 59.5547 13.5391 59.4453 13.4453C59.3359 13.3516 59.2812 13.2031 59.2812 13C59.2812 12.7969 59.3047 12.5391 59.3516 12.2266C59.4141 11.8984 59.4766 11.5547 59.5391 11.1953C59.6172 10.8203 59.6797 10.4453 59.7266 10.0703C59.7891 9.67969 59.8203 9.32031 59.8203 8.99219C59.8203 8.53906 59.7812 8.17969 59.7031 7.91406C59.6406 7.63281 59.5391 7.41406 59.3984 7.25781C59.2734 7.08594 59.1094 6.96875 58.9062 6.90625C58.7031 6.82812 58.4688 6.77344 58.2031 6.74219C57.875 6.74219 57.5469 6.79688 57.2188 6.90625C56.8906 7.01562 56.6094 7.07031 56.375 7.07031C56.2344 7.07031 56.1172 7.01562 56.0234 6.90625C55.9453 6.79688 55.9062 6.67188 55.9062 6.53125C55.9062 6.42188 55.9297 6.3125 55.9766 6.20312C56.0391 6.07812 56.1406 5.97656 56.2812 5.89844ZM55.25 5.66406C55.25 6.69531 55.2578 7.74219 55.2734 8.80469C55.2891 9.85156 55.3594 10.8047 55.4844 11.6641V11.8281C55.4844 12.0938 55.4141 12.2969 55.2734 12.4375C55.1484 12.5625 55.0078 12.625 54.8516 12.625C54.7109 12.625 54.5781 12.5625 54.4531 12.4375C54.3281 12.3125 54.25 12.1172 54.2188 11.8516C54.1406 11.1016 54.0781 10.3281 54.0312 9.53125C53.9844 8.73438 53.9609 7.91406 53.9609 7.07031C53.9609 6.89844 53.9531 6.70312 53.9375 6.48438C53.9219 6.26562 53.9219 6.0625 53.9375 5.875C53.9688 5.67188 54.0312 5.50781 54.125 5.38281C54.2344 5.24219 54.3984 5.17188 54.6172 5.17188C54.7734 5.17188 54.9141 5.22656 55.0391 5.33594C55.1797 5.42969 55.25 5.53906 55.25 5.66406ZM70.7188 12.0391C70.8281 12.1953 70.8828 12.3516 70.8828 12.5078C70.8828 12.7109 70.8047 12.8828 70.6484 13.0234C70.4922 13.1641 70.3125 13.2344 70.1094 13.2344C69.8906 13.2344 69.6172 13.0234 69.2891 12.6016C68.9609 12.1797 68.6172 11.6641 68.2578 11.0547C67.8984 10.4453 67.5547 9.8125 67.2266 9.15625C66.8984 8.48438 66.6406 7.89844 66.4531 7.39844C66.4219 7.33594 66.3828 7.25781 66.3359 7.16406C66.3047 7.05469 66.2891 6.9375 66.2891 6.8125C66.2891 6.65625 66.3359 6.46094 66.4297 6.22656C66.5391 5.99219 66.7812 5.78906 67.1562 5.61719C67.6406 5.38281 68.0312 5.17188 68.3281 4.98438C68.6406 4.79688 68.875 4.625 69.0312 4.46875C69.1875 4.29688 69.2891 4.14062 69.3359 4C69.3984 3.85938 69.4297 3.72656 69.4297 3.60156C69.4297 3.11719 69.1719 2.76562 68.6562 2.54688C68.1562 2.3125 67.5234 2.19531 66.7578 2.19531C66.4453 2.19531 66.1094 2.21094 65.75 2.24219C65.4062 2.27344 65.0312 2.32031 64.625 2.38281C64.75 2.89844 64.8359 3.50781 64.8828 4.21094C64.9453 4.91406 64.9766 5.66406 64.9766 6.46094C64.9766 7.05469 64.9609 7.64844 64.9297 8.24219C64.9141 8.83594 64.8906 9.39844 64.8594 9.92969C64.8281 10.4609 64.7812 10.9453 64.7188 11.3828C64.6719 11.8203 64.625 12.1797 64.5781 12.4609C64.5469 12.6797 64.4531 12.8438 64.2969 12.9531C64.1562 13.0625 64.0078 13.1172 63.8516 13.1172C63.6797 13.1172 63.5156 13.0625 63.3594 12.9531C63.2188 12.8438 63.1484 12.6797 63.1484 12.4609C63.1484 12.3828 63.1562 12.3203 63.1719 12.2734C63.2812 11.5078 63.375 10.6094 63.4531 9.57812C63.5312 8.54688 63.5703 7.51562 63.5703 6.48438C63.5703 5.625 63.5391 4.82812 63.4766 4.09375C63.4141 3.35938 63.3125 2.77344 63.1719 2.33594C63.0938 2.10156 63.0547 1.92188 63.0547 1.79688C63.0547 1.5625 63.1094 1.38281 63.2188 1.25781C63.3281 1.11719 63.4688 1.04688 63.6406 1.04688C63.7344 1.04688 63.8281 1.07031 63.9219 1.11719H63.9688C64.4531 1.07031 64.9141 1.03125 65.3516 1C65.8047 0.96875 66.2344 0.953125 66.6406 0.953125C67.2031 0.953125 67.7422 0.992187 68.2578 1.07031C68.7891 1.14844 69.25 1.28906 69.6406 1.49219C70.0312 1.69531 70.3438 1.96094 70.5781 2.28906C70.8125 2.61719 70.9297 3.02344 70.9297 3.50781C70.9297 4.03906 70.6875 4.58594 70.2031 5.14844C69.7188 5.69531 68.9062 6.25781 67.7656 6.83594C67.9062 7.19531 68.0938 7.625 68.3281 8.125C68.5781 8.625 68.8438 9.125 69.125 9.625C69.4219 10.125 69.7109 10.5938 69.9922 11.0312C70.2734 11.4688 70.5156 11.8047 70.7188 12.0391Z" fill="#F5F8FC"/>
</svg>
